<mxfile host="app.diagrams.net" modified="2021-05-29T05:37:31.188Z" agent="5.0 (Windows NT 10.0; Win64; x64) AppleWebKit/537.36 (KHTML, like Gecko) Chrome/91.0.4472.77 Safari/537.36" etag="M-VaQuBvJw16nOolg7J4" version="14.7.2" type="github">
  <diagram id="tNvnDxxoXg2uNOFj9Sj1" name="Page-1">
    <mxGraphModel dx="920" dy="605" grid="1" gridSize="10" guides="1" tooltips="1" connect="1" arrows="1" fold="1" page="1" pageScale="1" pageWidth="827" pageHeight="1169" math="0" shadow="0">
      <root>
        <mxCell id="0" />
        <mxCell id="1" parent="0" />
        <mxCell id="lggHK7FK5EfFPAlNipWP-21" style="edgeStyle=orthogonalEdgeStyle;rounded=0;orthogonalLoop=1;jettySize=auto;html=1;exitX=0.5;exitY=1;exitDx=0;exitDy=0;entryX=0.5;entryY=0;entryDx=0;entryDy=0;" edge="1" parent="1" source="lggHK7FK5EfFPAlNipWP-32" target="lggHK7FK5EfFPAlNipWP-20">
          <mxGeometry relative="1" as="geometry">
            <mxPoint x="713" y="342" as="sourcePoint" />
          </mxGeometry>
        </mxCell>
        <mxCell id="lggHK7FK5EfFPAlNipWP-24" style="edgeStyle=orthogonalEdgeStyle;rounded=0;orthogonalLoop=1;jettySize=auto;html=1;exitX=0.5;exitY=1;exitDx=0;exitDy=0;entryX=0.5;entryY=0;entryDx=0;entryDy=0;" edge="1" parent="1" source="lggHK7FK5EfFPAlNipWP-20" target="lggHK7FK5EfFPAlNipWP-22">
          <mxGeometry relative="1" as="geometry" />
        </mxCell>
        <mxCell id="lggHK7FK5EfFPAlNipWP-20" value="For each schedule" style="rounded=1;whiteSpace=wrap;html=1;" vertex="1" parent="1">
          <mxGeometry x="608" y="322" width="210" height="60" as="geometry" />
        </mxCell>
        <mxCell id="lggHK7FK5EfFPAlNipWP-26" style="edgeStyle=orthogonalEdgeStyle;rounded=0;orthogonalLoop=1;jettySize=auto;html=1;exitX=0.5;exitY=1;exitDx=0;exitDy=0;entryX=0.5;entryY=0;entryDx=0;entryDy=0;" edge="1" parent="1" source="lggHK7FK5EfFPAlNipWP-22" target="lggHK7FK5EfFPAlNipWP-25">
          <mxGeometry relative="1" as="geometry" />
        </mxCell>
        <mxCell id="lggHK7FK5EfFPAlNipWP-22" value="&lt;div style=&quot;text-align: left&quot;&gt;Notify the user must comfirm Ugv Init Pos before planned_start_time.&lt;/div&gt;" style="rounded=1;whiteSpace=wrap;html=1;" vertex="1" parent="1">
          <mxGeometry x="611.75" y="452" width="202.5" height="60" as="geometry" />
        </mxCell>
        <mxCell id="lggHK7FK5EfFPAlNipWP-27" style="edgeStyle=orthogonalEdgeStyle;rounded=0;orthogonalLoop=1;jettySize=auto;html=1;exitX=0.5;exitY=1;exitDx=0;exitDy=0;entryX=0.5;entryY=0;entryDx=0;entryDy=0;" edge="1" parent="1" source="lggHK7FK5EfFPAlNipWP-25" target="lggHK7FK5EfFPAlNipWP-29">
          <mxGeometry relative="1" as="geometry">
            <mxPoint x="713" y="652" as="targetPoint" />
          </mxGeometry>
        </mxCell>
        <mxCell id="lggHK7FK5EfFPAlNipWP-28" value="Yes" style="edgeLabel;html=1;align=center;verticalAlign=middle;resizable=0;points=[];" vertex="1" connectable="0" parent="lggHK7FK5EfFPAlNipWP-27">
          <mxGeometry x="-0.1614" y="1" relative="1" as="geometry">
            <mxPoint as="offset" />
          </mxGeometry>
        </mxCell>
        <mxCell id="lggHK7FK5EfFPAlNipWP-33" style="edgeStyle=orthogonalEdgeStyle;rounded=0;orthogonalLoop=1;jettySize=auto;html=1;exitX=1;exitY=0.5;exitDx=0;exitDy=0;entryX=0;entryY=0.5;entryDx=0;entryDy=0;" edge="1" parent="1" source="lggHK7FK5EfFPAlNipWP-25" target="lggHK7FK5EfFPAlNipWP-36">
          <mxGeometry relative="1" as="geometry">
            <mxPoint x="888" y="566.9655172413793" as="targetPoint" />
          </mxGeometry>
        </mxCell>
        <mxCell id="lggHK7FK5EfFPAlNipWP-35" value="No" style="edgeLabel;html=1;align=center;verticalAlign=middle;resizable=0;points=[];" vertex="1" connectable="0" parent="lggHK7FK5EfFPAlNipWP-33">
          <mxGeometry x="-0.1815" relative="1" as="geometry">
            <mxPoint as="offset" />
          </mxGeometry>
        </mxCell>
        <mxCell id="lggHK7FK5EfFPAlNipWP-25" value="User confirmed before&amp;nbsp;&lt;span style=&quot;text-align: left&quot;&gt;planned_start_time.&lt;/span&gt;" style="rhombus;whiteSpace=wrap;html=1;" vertex="1" parent="1">
          <mxGeometry x="603" y="532" width="220" height="70" as="geometry" />
        </mxCell>
        <mxCell id="lggHK7FK5EfFPAlNipWP-29" value="Change&amp;nbsp;&lt;span style=&quot;background-color: rgb(204 , 255 , 153)&quot;&gt;&quot;schedule_status&quot; &lt;/span&gt;&lt;span style=&quot;background-color: rgb(255 , 255 , 255)&quot;&gt;as 1, which means ready&lt;/span&gt;&amp;nbsp;" style="rounded=1;whiteSpace=wrap;html=1;" vertex="1" parent="1">
          <mxGeometry x="618" y="642" width="200" height="60" as="geometry" />
        </mxCell>
        <mxCell id="lggHK7FK5EfFPAlNipWP-30" style="edgeStyle=orthogonalEdgeStyle;rounded=0;orthogonalLoop=1;jettySize=auto;html=1;exitX=0;exitY=0.25;exitDx=0;exitDy=0;dashed=1;entryX=0.488;entryY=0.972;entryDx=0;entryDy=0;entryPerimeter=0;" edge="1" parent="1" source="lggHK7FK5EfFPAlNipWP-20" target="lggHK7FK5EfFPAlNipWP-31">
          <mxGeometry relative="1" as="geometry">
            <mxPoint x="598" y="372" as="targetPoint" />
            <mxPoint x="638" y="407" as="sourcePoint" />
          </mxGeometry>
        </mxCell>
        <mxCell id="lggHK7FK5EfFPAlNipWP-31" value="&lt;span style=&quot;background-color: rgb(204 , 255 , 153)&quot;&gt;Current &quot;schedule_status&quot;: 7, which means waiting&lt;/span&gt;" style="text;html=1;align=center;verticalAlign=middle;resizable=0;points=[];autosize=1;strokeColor=none;" vertex="1" parent="1">
          <mxGeometry x="413" y="292" width="290" height="20" as="geometry" />
        </mxCell>
        <mxCell id="lggHK7FK5EfFPAlNipWP-32" value="&lt;span&gt;A list of schedules created by user&lt;/span&gt;" style="rounded=1;whiteSpace=wrap;html=1;" vertex="1" parent="1">
          <mxGeometry x="606.75" y="207" width="210" height="60" as="geometry" />
        </mxCell>
        <mxCell id="lggHK7FK5EfFPAlNipWP-44" style="edgeStyle=orthogonalEdgeStyle;rounded=0;orthogonalLoop=1;jettySize=auto;html=1;exitX=1;exitY=0.5;exitDx=0;exitDy=0;entryX=0;entryY=0.5;entryDx=0;entryDy=0;" edge="1" parent="1" source="lggHK7FK5EfFPAlNipWP-36" target="lggHK7FK5EfFPAlNipWP-43">
          <mxGeometry relative="1" as="geometry" />
        </mxCell>
        <mxCell id="lggHK7FK5EfFPAlNipWP-36" value="&lt;span&gt;Change&amp;nbsp;&lt;/span&gt;&lt;span style=&quot;background-color: rgb(204 , 255 , 153)&quot;&gt;&quot;schedule_status&quot;&amp;nbsp;&lt;/span&gt;&lt;span style=&quot;background-color: rgb(255 , 255 , 255)&quot;&gt;as 4, which means cancel&lt;/span&gt;&lt;span&gt;&amp;nbsp;&lt;/span&gt;" style="rounded=1;whiteSpace=wrap;html=1;" vertex="1" parent="1">
          <mxGeometry x="896" y="537" width="192" height="60" as="geometry" />
        </mxCell>
        <mxCell id="lggHK7FK5EfFPAlNipWP-38" value="IPC Program" style="rounded=0;whiteSpace=wrap;html=1;dashed=1;dashPattern=1 2;align=left;verticalAlign=top;" vertex="1" parent="1">
          <mxGeometry x="578" y="772" width="740" height="190" as="geometry" />
        </mxCell>
        <mxCell id="lggHK7FK5EfFPAlNipWP-47" style="edgeStyle=orthogonalEdgeStyle;rounded=0;orthogonalLoop=1;jettySize=auto;html=1;exitX=1;exitY=0.5;exitDx=0;exitDy=0;entryX=0;entryY=0.5;entryDx=0;entryDy=0;" edge="1" parent="1" source="lggHK7FK5EfFPAlNipWP-40" target="lggHK7FK5EfFPAlNipWP-46">
          <mxGeometry relative="1" as="geometry" />
        </mxCell>
        <mxCell id="lggHK7FK5EfFPAlNipWP-40" value="Wait for new schedules with&lt;span style=&quot;background-color: rgb(204 , 255 , 153)&quot;&gt;&quot;schedule_status&quot;&amp;nbsp;&lt;/span&gt;&lt;span style=&quot;background-color: rgb(255 , 255 , 255)&quot;&gt;== 1&lt;/span&gt;&lt;br&gt;&amp;nbsp;" style="rounded=1;whiteSpace=wrap;html=1;verticalAlign=middle;" vertex="1" parent="1">
          <mxGeometry x="609.25" y="842" width="205" height="60" as="geometry" />
        </mxCell>
        <mxCell id="lggHK7FK5EfFPAlNipWP-42" value="" style="shape=flexArrow;endArrow=classic;html=1;entryX=0.544;entryY=-0.044;entryDx=0;entryDy=0;entryPerimeter=0;dashed=1;" edge="1" parent="1" target="lggHK7FK5EfFPAlNipWP-40">
          <mxGeometry width="50" height="50" relative="1" as="geometry">
            <mxPoint x="720" y="712" as="sourcePoint" />
            <mxPoint x="848" y="732" as="targetPoint" />
          </mxGeometry>
        </mxCell>
        <mxCell id="lggHK7FK5EfFPAlNipWP-51" style="edgeStyle=orthogonalEdgeStyle;rounded=0;orthogonalLoop=1;jettySize=auto;html=1;exitX=0.5;exitY=0;exitDx=0;exitDy=0;entryX=0.5;entryY=1;entryDx=0;entryDy=0;" edge="1" parent="1" source="lggHK7FK5EfFPAlNipWP-43" target="lggHK7FK5EfFPAlNipWP-52">
          <mxGeometry relative="1" as="geometry">
            <mxPoint x="1068" y="422" as="targetPoint" />
          </mxGeometry>
        </mxCell>
        <mxCell id="lggHK7FK5EfFPAlNipWP-43" value="update table &quot;schedule_log&quot;&lt;br&gt;and&amp;nbsp;&lt;br&gt;table &quot;schedule_job_log&quot;" style="rounded=1;whiteSpace=wrap;html=1;verticalAlign=middle;" vertex="1" parent="1">
          <mxGeometry x="1148" y="537" width="210" height="60" as="geometry" />
        </mxCell>
        <mxCell id="lggHK7FK5EfFPAlNipWP-49" style="edgeStyle=orthogonalEdgeStyle;rounded=0;orthogonalLoop=1;jettySize=auto;html=1;exitX=1;exitY=0.5;exitDx=0;exitDy=0;entryX=0;entryY=0.5;entryDx=0;entryDy=0;" edge="1" parent="1" source="lggHK7FK5EfFPAlNipWP-46" target="lggHK7FK5EfFPAlNipWP-48">
          <mxGeometry relative="1" as="geometry" />
        </mxCell>
        <mxCell id="lggHK7FK5EfFPAlNipWP-46" value="Execute the schedule" style="rounded=1;whiteSpace=wrap;html=1;verticalAlign=middle;" vertex="1" parent="1">
          <mxGeometry x="848" y="842" width="180" height="60" as="geometry" />
        </mxCell>
        <mxCell id="lggHK7FK5EfFPAlNipWP-50" style="edgeStyle=orthogonalEdgeStyle;rounded=0;orthogonalLoop=1;jettySize=auto;html=1;exitX=0.75;exitY=0;exitDx=0;exitDy=0;entryX=0.5;entryY=1;entryDx=0;entryDy=0;" edge="1" parent="1" source="lggHK7FK5EfFPAlNipWP-48" target="lggHK7FK5EfFPAlNipWP-43">
          <mxGeometry relative="1" as="geometry" />
        </mxCell>
        <mxCell id="lggHK7FK5EfFPAlNipWP-48" value="Done. Change&amp;nbsp;&lt;span style=&quot;background-color: rgb(204 , 255 , 153)&quot;&gt;&quot;schedule_status&quot;&amp;nbsp;&lt;/span&gt;&lt;span style=&quot;background-color: rgb(255 , 255 , 255)&quot;&gt;as 3, which means finished&lt;/span&gt;" style="rounded=1;whiteSpace=wrap;html=1;verticalAlign=middle;" vertex="1" parent="1">
          <mxGeometry x="1078" y="842" width="190" height="60" as="geometry" />
        </mxCell>
        <mxCell id="lggHK7FK5EfFPAlNipWP-55" style="edgeStyle=orthogonalEdgeStyle;rounded=0;orthogonalLoop=1;jettySize=auto;html=1;exitX=0;exitY=0.5;exitDx=0;exitDy=0;" edge="1" parent="1" source="lggHK7FK5EfFPAlNipWP-52">
          <mxGeometry relative="1" as="geometry">
            <mxPoint x="718" y="422" as="targetPoint" />
          </mxGeometry>
        </mxCell>
        <mxCell id="lggHK7FK5EfFPAlNipWP-52" value="For next schedule" style="rounded=1;whiteSpace=wrap;html=1;" vertex="1" parent="1">
          <mxGeometry x="938" y="362" width="210" height="60" as="geometry" />
        </mxCell>
        <mxCell id="lggHK7FK5EfFPAlNipWP-53" value="&lt;span style=&quot;background-color: rgb(204 , 255 , 153)&quot;&gt;Current &quot;schedule_status&quot;: 7, which means waiting&lt;/span&gt;" style="text;html=1;align=center;verticalAlign=middle;resizable=0;points=[];autosize=1;strokeColor=none;" vertex="1" parent="1">
          <mxGeometry x="1068" y="302" width="290" height="20" as="geometry" />
        </mxCell>
        <mxCell id="lggHK7FK5EfFPAlNipWP-54" style="edgeStyle=orthogonalEdgeStyle;rounded=0;orthogonalLoop=1;jettySize=auto;html=1;exitX=1;exitY=0.5;exitDx=0;exitDy=0;dashed=1;" edge="1" parent="1" source="lggHK7FK5EfFPAlNipWP-52" target="lggHK7FK5EfFPAlNipWP-53">
          <mxGeometry relative="1" as="geometry">
            <mxPoint x="564.52" y="321.4399999999998" as="targetPoint" />
            <mxPoint x="616.75" y="347" as="sourcePoint" />
          </mxGeometry>
        </mxCell>
      </root>
    </mxGraphModel>
  </diagram>
</mxfile>
